<?xml version="1.0" encoding="UTF-8"?>
<!-- Created with Inkscape (http://www.inkscape.org/) -->
<svg width="512" height="512" version="1.1" viewBox="0 0 135.47 135.47" xmlns="http://www.w3.org/2000/svg">
 <g stroke-linecap="round" stroke-linejoin="round">
  <rect x="-2.4023e-6" y="-2.4023e-6" width="135.47" height="135.47" ry="23.537" stroke-width=".052917"/>
  <g transform="matrix(1.4114 2.4445 -2.4445 1.4114 -65.373 -16.934)" fill="#2ad4ff" stroke="#164450" stroke-width=".71428">
   <path transform="scale(.26458)" d="m171.49-196.8-22.461 38.904 25.566 44.283h27.586l4.1992 7.2715 16.252 28.15h-8.3965l-16.252-28.15h-19.189l25.723 44.553h44.92l-39.174-67.852h-27.006l-15.76-27.297 4.1973-7.2715 15.76 27.299h18.611z"/>
   <path transform="scale(.26458)" d="m144.83-150.62-51.291 88.838h102.58l-37.58-65.094-24.346 42.168h18.803l5.9629-10.328 10.16 17.6h-20.322l-18.801-2e-3h-8.3965l4.1973-7.2695 28.543-49.439z"/>
  </g>
 </g>
</svg>
